<svg width="151" height="28" viewBox="0 0 151 28" fill="none" xmlns="http://www.w3.org/2000/svg">
<path d="M10.6751 27.5195C9.05888 27.5195 7.59724 27.2599 6.28912 26.7405C4.981 26.2212 3.85633 25.4907 2.91347 24.5478C1.97117 23.606 1.24988 22.495 0.750144 21.2157C0.249866 19.9364 0 18.5467 0 17.0464C0 15.5461 0.26402 14.1661 0.793149 12.9064C1.32173 11.6468 2.07732 10.5455 3.05828 9.60265C4.03923 8.66034 5.19711 7.92925 6.53518 7.40992C7.87161 6.89059 9.32834 6.63092 10.9059 6.63092C12.0213 6.63092 13.0742 6.77518 14.0655 7.0637C15.0557 7.35221 15.9544 7.74688 16.7628 8.24662C17.5707 8.74744 18.2528 9.32393 18.8107 9.97772L15.839 13.1225C15.3583 12.6609 14.863 12.2766 14.3534 11.9685C13.8434 11.6615 13.3001 11.4159 12.7236 11.233C12.146 11.0501 11.5303 10.9587 10.8765 10.9587C10.03 10.9587 9.25649 11.1127 8.55425 11.4203C7.85147 11.7284 7.23687 12.1563 6.70774 12.7045C6.17861 13.2527 5.76979 13.8972 5.48182 14.6375C5.1933 15.3779 5.04904 16.1808 5.04904 17.0464C5.04904 17.9119 5.20255 18.7198 5.51067 19.4699C5.81769 20.2201 6.24121 20.8695 6.78014 21.4177C7.31798 21.9659 7.95816 22.3986 8.69851 22.716C9.43885 23.0334 10.2325 23.1918 11.0785 23.1918C11.6746 23.1918 12.2375 23.096 12.7666 22.9033C13.2952 22.7111 13.7519 22.4514 14.1368 22.1243C14.5216 21.7976 14.8298 21.4079 15.0606 20.956C15.2908 20.5042 15.4062 20.0181 15.4062 19.4988V18.7486L16.041 19.7296H10.4732V15.8923H19.9648C20.0035 16.1041 20.0323 16.3931 20.0519 16.7579C20.071 17.1237 20.0851 17.4791 20.0949 17.8254C20.1042 18.1716 20.1096 18.4313 20.1096 18.6044C20.1096 19.9125 19.8734 21.1101 19.4025 22.1967C18.931 23.2832 18.2724 24.2212 17.4259 25.0094C16.5799 25.7982 15.5799 26.4139 14.4258 26.8559C13.2718 27.2985 12.0213 27.5195 10.6751 27.5195Z" fill="#9B28CC"/>
<path d="M24.2362 23.3653L25.7658 19.6723H35.0555L36.5564 23.3653H24.2362ZM20.4277 27.2314L28.4202 7.03528H32.5743L40.509 27.2314H35.546L31.7376 16.9891C31.5835 16.5852 31.43 16.1524 31.2765 15.6908C31.1219 15.2291 30.9684 14.7534 30.8143 14.2623C30.6603 13.7719 30.5117 13.2917 30.3674 12.8198C30.2231 12.3489 30.1023 11.9112 30.007 11.5073L30.872 11.4784C30.7572 11.9597 30.6271 12.4305 30.4828 12.8922C30.3386 13.3538 30.1943 13.8111 30.05 14.2623C29.9058 14.7147 29.7468 15.1671 29.5743 15.6189C29.4006 16.0707 29.2373 16.5373 29.0832 17.018L25.2748 27.2314H20.4277Z" fill="#9B28CC"/>
<path d="M49.1335 27.5195C47.8063 27.5195 46.6087 27.3606 45.5412 27.0432C44.4737 26.7258 43.5264 26.2648 42.7001 25.6589C41.8727 25.053 41.1318 24.3366 40.4785 23.5091L43.4502 20.1335C44.4111 21.4226 45.3784 22.2881 46.3496 22.7302C47.3207 23.1733 48.3262 23.3937 49.3643 23.3937C49.8836 23.3937 50.355 23.3268 50.778 23.1918C51.201 23.0573 51.5282 22.8603 51.759 22.6006C51.9898 22.3409 52.1052 22.0192 52.1052 21.6338C52.1052 21.3453 52.0333 21.0856 51.8891 20.8548C51.7448 20.624 51.5472 20.422 51.2979 20.2489C51.0475 20.0758 50.7497 19.9174 50.4029 19.7731C50.0567 19.6289 49.6909 19.5037 49.3066 19.3981C48.9217 19.2924 48.5281 19.201 48.1242 19.1237C47.0082 18.8744 46.0371 18.5663 45.2096 18.2004C44.3822 17.8352 43.6952 17.3882 43.147 16.8591C42.5988 16.33 42.19 15.7246 41.9206 15.0415C41.6511 14.3588 41.5166 13.594 41.5166 12.7475C41.5166 11.8438 41.7235 11.012 42.1367 10.2521C42.5504 9.49214 43.1084 8.83834 43.8106 8.29016C44.5123 7.74198 45.3251 7.31901 46.2483 7.02069C47.1716 6.72238 48.1335 6.57322 49.1335 6.57322C50.4606 6.57322 51.6006 6.71312 52.5527 6.99184C53.5042 7.27056 54.3219 7.66958 55.0051 8.18891C55.6877 8.70824 56.2691 9.33372 56.7503 10.0643L53.7214 12.9783C53.3175 12.4786 52.8793 12.0648 52.4084 11.7377C51.9364 11.411 51.4367 11.1606 50.9081 10.9875C50.3784 10.8144 49.8357 10.7279 49.2783 10.7279C48.7007 10.7279 48.2053 10.8003 47.7921 10.9445C47.3779 11.0888 47.0567 11.2907 46.8259 11.5504C46.5945 11.8101 46.4791 12.1225 46.4791 12.4878C46.4791 12.815 46.5755 13.0937 46.7676 13.3245C46.9598 13.5553 47.2195 13.7627 47.5466 13.9445C47.8738 14.128 48.2489 14.2815 48.6718 14.4067C49.0948 14.5319 49.5374 14.6332 49.999 14.7094C51.0567 14.9211 52.0137 15.1999 52.87 15.5461C53.7258 15.8923 54.4661 16.3158 55.0911 16.8156C55.7166 17.3158 56.1978 17.9076 56.5342 18.5902C56.8706 19.2734 57.0388 20.0665 57.0388 20.9702C57.0388 22.3747 56.6975 23.5625 56.0149 24.5337C55.3317 25.5048 54.3992 26.2457 53.2163 26.7552C52.0333 27.2648 50.6724 27.5195 49.1335 27.5195Z" fill="#9B28CC"/>
<path d="M65.8089 27.2314L57.7305 7.03528H62.8372L66.7322 17.3353C66.963 17.932 67.1595 18.4513 67.3234 18.8933C67.4867 19.3359 67.6315 19.7491 67.7562 20.1339C67.8814 20.5188 67.9968 20.9086 68.1029 21.3022C68.208 21.6968 68.3283 22.1443 68.4633 22.644H67.5689C67.7229 21.9902 67.8765 21.4083 68.0305 20.8988C68.184 20.3892 68.3577 19.8596 68.5498 19.3119C68.742 18.7632 68.9826 18.1045 69.2711 17.3353L73.0219 7.03528H78.042L69.9059 27.2314H65.8089Z" fill="#9B28CC"/>
<path d="M81.7793 7.02227H87.1876V27.231H81.7793V7.02227Z" fill="#9B28CC"/>
<path d="M99.3366 27.5195C98.0094 27.5195 96.8118 27.3606 95.7443 27.0432C94.6768 26.7258 93.7296 26.2648 92.9032 25.6589C92.0758 25.053 91.3349 24.3366 90.6816 23.5091L93.6534 20.1335C94.6142 21.4226 95.5815 22.2881 96.5527 22.7302C97.5238 23.1733 98.5293 23.3937 99.5674 23.3937C100.087 23.3937 100.558 23.3268 100.981 23.1918C101.404 23.0573 101.731 22.8603 101.962 22.6006C102.193 22.3409 102.308 22.0192 102.308 21.6338C102.308 21.3453 102.236 21.0856 102.092 20.8548C101.948 20.624 101.75 20.422 101.501 20.2489C101.251 20.0758 100.953 19.9174 100.606 19.7731C100.26 19.6289 99.894 19.5037 99.5097 19.3981C99.1248 19.2924 98.7313 19.201 98.3273 19.1237C97.2114 18.8744 96.2402 18.5663 95.4128 18.2004C94.5853 17.8352 93.8983 17.3882 93.3501 16.8591C92.802 16.33 92.3931 15.7246 92.1237 15.0415C91.8542 14.3588 91.7198 13.594 91.7198 12.7475C91.7198 11.8438 91.9266 11.012 92.3398 10.2521C92.7535 9.49214 93.3115 8.83834 94.0137 8.29016C94.7154 7.74198 95.5282 7.31901 96.4514 7.02069C97.3747 6.72238 98.3366 6.57322 99.3366 6.57322C100.664 6.57322 101.804 6.71312 102.756 6.99184C103.707 7.27056 104.525 7.66958 105.208 8.18891C105.891 8.70824 106.472 9.33372 106.953 10.0643L103.925 12.9783C103.521 12.4786 103.082 12.0648 102.612 11.7377C102.14 11.411 101.64 11.1606 101.111 10.9875C100.582 10.8144 100.039 10.7279 99.4814 10.7279C98.9038 10.7279 98.4084 10.8003 97.9953 10.9445C97.581 11.0888 97.2598 11.2907 97.029 11.5504C96.7977 11.8101 96.6822 12.1225 96.6822 12.4878C96.6822 12.815 96.7786 13.0937 96.9708 13.3245C97.1629 13.5553 97.4226 13.7627 97.7498 13.9445C98.0769 14.128 98.452 14.2815 98.875 14.4067C99.2979 14.5319 99.7405 14.6332 100.202 14.7094C101.26 14.9211 102.217 15.1999 103.073 15.5461C103.929 15.8923 104.669 16.3158 105.294 16.8156C105.92 17.3158 106.401 17.9076 106.737 18.5902C107.074 19.2734 107.242 20.0665 107.242 20.9702C107.242 22.3747 106.901 23.5625 106.218 24.5337C105.535 25.5048 104.602 26.2457 103.419 26.7552C102.236 27.2648 100.876 27.5195 99.3366 27.5195Z" fill="#9B28CC"/>
<path d="M119.534 22.9033C120.322 22.9033 121.048 22.759 121.712 22.4705C122.375 22.182 122.952 21.7737 123.443 21.2446C123.934 20.7154 124.313 20.0954 124.582 19.3834C124.852 18.6724 124.987 17.8929 124.987 17.0464C124.987 16.2004 124.852 15.4214 124.582 14.7094C124.313 13.9984 123.934 13.3779 123.443 12.8487C122.952 12.3196 122.375 11.9108 121.712 11.6223C121.048 11.3337 120.322 11.1895 119.534 11.1895C118.745 11.1895 118.019 11.3337 117.355 11.6223C116.692 11.9108 116.11 12.3196 115.61 12.8487C115.109 13.3779 114.73 13.9984 114.47 14.7094C114.21 15.4214 114.08 16.2004 114.08 17.0464C114.08 17.8929 114.21 18.6768 114.47 19.3981C114.73 20.1193 115.109 20.7394 115.61 21.2587C116.11 21.778 116.692 22.182 117.355 22.4705C118.019 22.759 118.745 22.9033 119.534 22.9033ZM119.563 27.5195C118.024 27.5195 116.619 27.2599 115.35 26.7405C114.08 26.2212 112.974 25.4907 112.032 24.5478C111.089 23.606 110.359 22.4993 109.839 21.2299C109.32 19.9604 109.061 18.5663 109.061 17.0464C109.061 15.527 109.32 14.1324 109.839 12.8629C110.359 11.5934 111.089 10.4878 112.032 9.54494C112.974 8.60263 114.08 7.87154 115.35 7.35221C116.619 6.83288 118.014 6.57322 119.534 6.57322C121.052 6.57322 122.448 6.83288 123.717 7.35221C124.987 7.87154 126.092 8.60263 127.035 9.54494C127.977 10.4878 128.704 11.5934 129.214 12.8629C129.723 14.1324 129.979 15.527 129.979 17.0464C129.979 18.5467 129.723 19.9364 129.214 21.2157C128.704 22.495 127.977 23.606 127.035 24.5478C126.092 25.4907 124.987 26.2212 123.717 26.7405C122.448 27.2599 121.063 27.5195 119.563 27.5195Z" fill="#9B28CC"/>
<path d="M144.405 27.2314L139.269 18.1143L144.289 17.393L150.002 27.2314H144.405ZM137.884 16.3832H141.866C142.366 16.3832 142.804 16.2727 143.179 16.0511C143.554 15.8307 143.843 15.5177 144.044 15.1137C144.246 14.7098 144.348 14.2482 144.348 13.7289C144.348 13.2095 144.232 12.7528 144.001 12.3587C143.77 11.9646 143.439 11.6613 143.006 11.4496C142.573 11.2384 142.049 11.1322 141.433 11.1322H137.884V16.3832ZM133.211 27.2314V7.03528H142.299C143.587 7.03528 144.756 7.31454 145.804 7.87197C146.852 8.42995 147.675 9.19479 148.272 10.1654C148.867 11.1371 149.165 12.2384 149.165 13.4692C149.165 14.7387 148.867 15.8786 148.272 16.8884C147.675 17.8977 146.858 18.6914 145.819 19.2684C144.78 19.8454 143.607 20.1339 142.299 20.1339H137.884V27.2314H133.211Z" fill="#9B28CC"/>
<path d="M87.459 -3.93768e-05H81.4878C81.0164 -3.93768e-05 80.6348 0.382109 80.6348 0.85299C80.6348 1.32387 81.0164 1.70602 81.4878 1.70602H83.6201V3.46924H85.3262V1.70602H87.459C87.9299 1.70602 88.312 1.32387 88.312 0.85299C88.312 0.382109 87.9299 -3.93768e-05 87.459 -3.93768e-05Z" fill="#9B28CC"/>
<path d="M85.8946 4.32275H83.0513C82.3453 4.32275 81.7715 4.89652 81.7715 5.60257V6.02881H87.1744V5.60257C87.1744 4.89652 86.6001 4.32275 85.8946 4.32275Z" fill="#9B28CC"/>
</svg>
