<svg width="70" height="24" viewBox="0 0 70 24" fill="none" xmlns="http://www.w3.org/2000/svg">
<path fill-rule="evenodd" clip-rule="evenodd" d="M59.7934 2.73848C59.7934 1.21758 61.0113 0.000215697 62.5339 0.000215697C64.0555 0.000215697 65.2734 1.21758 65.2734 2.73848C65.2734 4.23011 64.0555 5.47775 62.5339 5.47775C61.0111 5.47775 59.7934 4.23011 59.7934 2.73848ZM4.81005 10.8027V2.73826H0V23.0657H4.81025V17.071L6.87981 14.7886L12.847 23.0657H18.4186L9.98535 11.4421L18.0221 2.73826H12.1466L4.81005 10.8027ZM29.311 13.0548V13.6328C23.4659 14.0585 19.2947 15.3059 19.2945 18.9881C19.2945 21.7271 21.6393 23.4307 24.5009 23.4307C26.6621 23.4307 28.428 22.8226 29.5541 21.2401L30.102 23.0656H34.3954C34.0907 21.7574 33.8777 19.1402 33.8777 17.1624V13.8453C33.8777 9.28062 31.4724 7.5468 27.18 7.5468C23.709 7.5468 21.2734 9.0677 20.2693 11.0768L24.1662 12.4758C24.4698 11.2594 25.5052 10.6806 26.7845 10.6806C28.3977 10.6806 29.311 11.3202 29.311 13.0548ZM24.0752 18.6535C24.0752 19.6277 24.9884 20.2662 26.2061 20.2662C28.0334 20.2662 29.4027 19.5058 29.4027 16.7362V16.3711C26.2063 16.6454 24.0752 17.071 24.0752 18.6535ZM36.9191 7.97248V23.0654H41.5464V15.4579C41.5464 13.0545 42.7643 12.0803 45.0164 12.0803C45.4432 12.0803 45.7782 12.1106 46.2646 12.1721V7.54684C43.9509 7.42495 42.3377 8.30729 41.3942 10.742L40.5718 7.97248H36.9191ZM64.9161 13.6328V13.0548C64.9161 11.3202 64.0029 10.6806 62.3896 10.6806C61.1103 10.6806 60.0749 11.2594 59.7713 12.4758L55.8745 11.0768C56.8785 9.0677 59.3142 7.5468 62.7851 7.5468C67.0775 7.5468 69.4828 9.28062 69.4828 13.8453V17.1624C69.4828 19.1402 69.6958 21.7574 70.0005 23.0656H65.7072L65.1592 21.2401C64.0331 22.8226 62.2673 23.4307 60.106 23.4307C57.2444 23.4307 54.8996 21.7271 54.8996 18.9881C54.8996 15.3059 59.0709 14.0585 64.9161 13.6328ZM61.8097 20.2662C60.592 20.2662 59.6788 19.6277 59.6788 18.6535C59.6788 17.071 61.8099 16.6454 65.0063 16.3711V16.7362C65.0063 19.5058 63.637 20.2662 61.8097 20.2662ZM52.8682 2.73826V23.0657H48.2408V2.73826H52.8682Z" fill="#9B28CC"/>
</svg>
