<svg width="118" height="31" viewBox="0 0 118 31" fill="none" xmlns="http://www.w3.org/2000/svg">
<g clip-path="url(#clip0_4084_12212)">
<path fill-rule="evenodd" clip-rule="evenodd" d="M13.2713 5.66283L12.6556 3.19573C11.2559 3.56049 10.2204 4.7653 10.0799 4.93332V12.7542L13.0476 13.7074V15.7253H3.25136V13.7353L5.91029 12.7821V3.86778L2.85938 2.85971V0.365624H9.4087L9.57694 2.58026C10.1927 1.73759 12.0676 0 14.6424 0C15.3987 0 16.154 0.0844418 16.4341 0.140156V5.66283H13.2713V5.66283ZM25.6424 11.3936C23.3754 11.3936 22.8152 13.0754 22.5915 14.8687H28.2736C28.2736 13.6918 28.1053 11.3936 25.6424 11.3936V11.3936ZM22.5915 17.5038C22.5915 18.962 22.9835 21.7085 27.0699 21.7085C28.7774 21.7085 30.7643 21.288 31.5205 21.0922L32.1362 23.951C31.3522 24.287 29.0853 24.9608 26.4264 24.9608C19.3446 24.9608 18.2536 19.8856 18.2536 17.1391C18.2536 12.3181 20.4364 8.86987 25.9225 8.86987C32.556 8.86987 32.6956 13.8598 32.6956 17.0555V17.5038H22.5923H22.5915ZM44.4795 11.9533C43.3313 11.9533 42.2958 12.5984 41.4286 13.4959V21.9888C41.8761 22.0167 42.5473 22.0445 43.0798 22.0445C46.2426 22.0445 47.4741 19.8308 47.4741 16.4383C47.4741 14.0008 46.6346 11.9533 44.4795 11.9533V11.9533ZM43.555 24.9878C42.8005 24.9878 42.1284 24.9321 41.4286 24.8485V27.4549L44.5073 28.436V30.4539H34.5991V28.4639L37.2581 27.4828V12.7951L34.2072 11.7574V9.26249H40.309L40.4764 11.4493C41.2881 10.4682 42.6037 8.86987 45.3467 8.86987C49.8251 8.86987 51.7564 12.4304 51.7564 16.3826C51.7564 21.0922 49.0134 24.9878 43.555 24.9878V24.9878ZM61.6082 17.6718C60.1252 17.6718 58.1098 17.7284 58.1098 19.8586C58.1098 21.2323 59.1175 21.793 60.2935 21.793C62.8691 21.793 63.2603 19.3259 63.2039 17.7563C62.6723 17.7284 62.1407 17.6718 61.6082 17.6718V17.6718ZM64.0156 24.6239L63.7919 22.1011C63.0634 23.5305 61.6091 24.96 58.9779 24.96C56.2071 24.96 53.856 23.4191 53.856 20.3914C53.856 16.158 57.2425 15.2056 60.4895 15.2056C61.4131 15.2056 62.308 15.2613 63.1206 15.2892V14.1967C63.1206 13.0188 62.8969 12.0377 60.7696 12.0377C58.866 12.0377 56.5982 12.5427 55.731 12.7951L55.0875 10.1313C56.1229 9.73954 58.866 8.8986 61.4131 8.8986C64.3799 8.8986 67.2625 9.82311 67.2625 13.9999V21.6807L69.9492 22.633V24.6239H64.0156V24.6239ZM80.6135 14.5606L79.9978 12.0943C78.5981 12.4582 77.5626 13.6639 77.4221 13.8319V21.6519L80.3898 22.606V24.6239H70.5927V22.6339L73.2516 21.6807V12.7664L70.2007 11.7566V9.26249H76.75L76.9183 11.4771C77.534 10.6362 79.409 8.8986 81.9838 8.8986C82.74 8.8986 83.4953 8.98217 83.7755 9.03789V14.5606H80.6127H80.6135ZM92.9846 11.3936C90.7176 11.3936 90.1574 13.0754 89.9345 14.8687H95.6158C95.6158 13.6918 95.4475 11.3936 92.9855 11.3936H92.9846ZM89.9345 17.5038C89.9345 18.962 90.3265 21.7085 94.412 21.7085C96.1205 21.7085 98.1064 21.288 98.8627 21.0922L99.4784 23.951C98.6944 24.287 96.4275 24.9608 93.7686 24.9608C86.6868 24.9608 85.5958 19.8856 85.5958 17.1391C85.5958 12.3181 87.7786 8.86987 93.2647 8.86987C99.899 8.86987 100.038 13.8598 100.038 17.0555V17.5038H89.9345V17.5038Z" fill="#9B28CC"/>
<mask id="mask0_4084_12212" style="mask-type:alpha" maskUnits="userSpaceOnUse" x="102" y="8" width="16" height="17">
<path d="M102.25 8.87061H117.812V24.9598H102.25V8.87061Z" fill="white"/>
</mask>
<g mask="url(#mask0_4084_12212)">
<path fill-rule="evenodd" clip-rule="evenodd" d="M110.031 11.4213C107.596 11.4213 106.588 13.3835 106.588 16.9152C106.588 20.4757 107.596 22.3822 110.031 22.3822C112.494 22.3822 113.474 20.447 113.474 16.8874C113.474 13.3556 112.494 11.4213 110.031 11.4213V11.4213ZM110.031 24.9598C105.049 24.9598 102.25 22.0731 102.25 16.9161C102.25 11.759 105.049 8.87061 110.031 8.87061C115.013 8.87061 117.812 11.7573 117.812 16.9152C117.812 22.0731 115.013 24.9598 110.031 24.9598" fill="#9B28CC"/>
</g>
<path fill-rule="evenodd" clip-rule="evenodd" d="M10.2108 24.6587V20.3905L16.0455 19.4372V17.563H0V19.4651L6.04286 20.4183V24.6578L10.2108 24.6587Z" fill="#9B28CC"/>
</g>
<defs>
<clipPath id="clip0_4084_12212">
<rect width="117.943" height="30.4687" fill="white"/>
</clipPath>
</defs>
</svg>
