<svg width="198" height="42" viewBox="0 0 198 42" fill="none" xmlns="http://www.w3.org/2000/svg">
<path fill-rule="evenodd" clip-rule="evenodd" d="M9.48402 6.38969C9.72307 6.93875 10.0538 7.43728 10.4555 7.84312C10.8585 8.27142 11.3519 8.60562 11.9162 8.84715C12.4596 9.08307 13.0516 9.20385 13.6868 9.20385C14.3275 9.20385 14.9126 9.08307 15.456 8.84715C15.9994 8.60562 16.4928 8.27142 16.9222 7.84312C17.3239 7.43728 17.6491 6.93875 17.8882 6.38969C18.1216 5.84202 18.2412 5.24381 18.2412 4.60206C18.2412 3.96031 18.1216 3.36208 17.8882 2.81301C17.6491 2.26535 17.3239 1.76543 16.9222 1.33292C16.4928 0.927083 15.9994 0.597096 15.456 0.355553C14.9126 0.11965 14.3275 0.000270169 13.6868 0.000270169C13.0516 0.000270169 12.4596 0.11965 11.9162 0.355553C11.3519 0.597096 10.8585 0.927083 10.4555 1.33292C10.0538 1.76543 9.72307 2.26535 9.48402 2.81301C9.22969 3.36208 9.11016 3.96031 9.11016 4.60206C9.11016 5.24381 9.22969 5.84202 9.48402 6.38969ZM0.353008 33.1424C0.592055 33.6915 0.922828 34.19 1.34672 34.5958C1.74837 35.0241 2.24175 35.3583 2.78517 35.5999C3.32858 35.8358 3.91925 35.9565 4.55439 35.9565H22.8456C23.4807 35.9565 24.0714 35.8358 24.637 35.5999C25.1791 35.3583 25.6738 35.0241 26.0755 34.5958C26.4771 34.19 26.8079 33.6915 27.047 33.1424C27.2805 32.5933 27.4 31.9965 27.4 31.3548V21.1949H6.37364V18.4313H27.4V16.5931C27.4 15.9513 27.2805 15.3531 27.047 14.8055C26.8079 14.2564 26.4771 13.7565 26.0755 13.3296C25.6738 12.9237 25.1791 12.5881 24.637 12.3522C24.0714 12.1121 23.4807 11.9913 22.8456 11.9913H4.55439C3.91925 11.9913 3.32858 12.1121 2.78517 12.3522C2.24175 12.5881 1.74837 12.9237 1.34672 13.3296C0.922828 13.7565 0.592055 14.2564 0.353008 14.8055C0.119522 15.3531 0 15.9513 0 16.5931V26.7516H20.9777V29.5166H0V31.3548C0 31.9965 0.119522 32.5933 0.353008 33.1424V33.1424Z" fill="#9B28CC"/>
<path fill-rule="evenodd" clip-rule="evenodd" d="M46.5742 35.9565V27.4711H52.8179V25.3727H46.5742V20.3148H54.0575V18.1923H44.043V35.9565H46.5742V35.9565Z" fill="#9B28CC"/>
<path fill-rule="evenodd" clip-rule="evenodd" d="M59.9315 35.9565V23.0199H55.8047V24.6607C56.1593 24.6848 56.7179 24.7615 57.4748 24.8609V35.9565H59.9315V35.9565ZM59.0689 20.3389C59.2968 20.2396 59.5009 20.086 59.7035 19.8045C59.9076 19.5456 60.0059 19.24 60.0059 18.933C60.0059 18.7282 59.9315 18.4753 59.8316 18.245C59.7035 17.9876 59.5009 17.7814 59.2506 17.6053C58.9944 17.4517 58.7143 17.375 58.4118 17.375C58.1854 17.375 57.9351 17.4276 57.7012 17.5285C57.4524 17.658 57.2245 17.8341 57.0442 18.093C56.8699 18.3218 56.7939 18.6274 56.7939 18.933C56.7939 19.1392 56.846 19.3454 56.922 19.5215C56.998 19.7278 57.1202 19.8798 57.2706 20.0093C57.4286 20.1628 57.6029 20.2621 57.7772 20.3389C57.9813 20.4157 58.1854 20.4684 58.4118 20.4684C58.6159 20.4684 58.8424 20.4157 59.0689 20.3389V20.3389Z" fill="#9B28CC"/>
<path fill-rule="evenodd" clip-rule="evenodd" d="M66.6583 35.9565V28.442C66.6583 27.9543 66.7566 27.4425 66.9607 26.9066C67.1887 26.3481 67.5432 25.8845 68.0781 25.4781C68.6308 25.0957 69.2133 24.8895 69.8703 24.8895C70.7091 24.8895 71.3139 25.1198 71.7162 25.5548C72.1229 26.0139 72.327 26.7305 72.327 27.7014V35.9565H74.7763V26.9834C74.7763 26.3195 74.6541 25.6843 74.4277 25.0189C74.1714 24.3551 73.7408 23.8147 73.1121 23.4082C72.4551 22.9732 71.6402 22.767 70.6331 22.767C69.696 22.767 68.8871 22.9431 68.2002 23.3315C67.5194 23.7138 66.9905 24.2256 66.6062 24.8368L66.56 23.0199H64.2031V35.9565H66.6583H66.6583Z" fill="#9B28CC"/>
<path fill-rule="evenodd" clip-rule="evenodd" d="M83.5797 36.0333C84.0862 35.9039 84.5406 35.7503 84.919 35.5456C85.2974 35.3454 85.6058 35.1151 85.8561 34.8577L85.9082 35.9566H88.2353V27.0602C88.2353 26.3195 88.131 25.6542 87.9269 25.1198C87.7526 24.5839 87.4502 24.1489 87.0435 23.7906C86.6412 23.4323 86.1347 23.1795 85.5015 23.0199C84.8951 22.8438 84.1622 22.767 83.3011 22.767C82.8705 22.767 82.4161 22.7911 81.9334 22.8438C81.4567 22.8679 81.0485 22.9205 80.7222 22.9973C80.4138 23.05 79.9147 23.1795 79.2279 23.3556V25.3727C79.7568 25.1725 80.3155 25.0189 80.898 24.8609C81.479 24.7375 82.1375 24.6607 82.8184 24.6607C83.377 24.6607 83.8836 24.7375 84.3886 24.8609C84.8728 24.9903 85.2214 25.2191 85.4538 25.5774C85.7041 25.9372 85.8039 26.4249 85.8039 27.0888V27.7767C85.7801 27.7767 85.6818 27.7767 85.5536 27.7767C85.4255 27.8008 85.2974 27.8008 85.1454 27.8008C85.0233 27.8008 84.8728 27.8008 84.7447 27.8008C84.6166 27.8008 84.5406 27.8008 84.5167 27.8008C83.7554 27.8309 83.097 27.8776 82.4921 27.9543C81.8872 28.0597 81.3285 28.2117 80.8458 28.3894C79.9892 28.7476 79.3322 29.2354 78.8719 29.8706C78.4413 30.5119 78.2148 31.3292 78.2148 32.2987C78.2148 33.0167 78.3191 33.6053 78.5173 34.093C78.7497 34.6048 79.0238 35.0097 79.3784 35.3153C79.733 35.6209 80.1635 35.8572 80.6477 35.9807C81.1244 36.1327 81.631 36.2095 82.1599 36.2095C82.5904 36.2095 83.0746 36.1327 83.5797 36.0333L83.5797 36.0333ZM81.707 34.093C81.3509 33.9394 81.1006 33.7046 80.9204 33.3524C80.7461 33.0167 80.6701 32.6343 80.6701 32.1993C80.6701 31.7116 80.7461 31.3051 80.9204 30.971C81.1006 30.6413 81.3509 30.3824 81.707 30.1536C82.0616 29.9473 82.4921 29.8239 83.021 29.717C83.5514 29.6418 84.186 29.5936 84.8952 29.5936H85.804V33.0934C85.652 33.2455 85.4538 33.4276 85.1976 33.6053C84.9473 33.7874 84.5927 33.9394 84.1622 34.093C83.7316 34.2164 83.2772 34.2932 82.8467 34.2932C82.44 34.2932 82.0616 34.2164 81.707 34.093V34.093Z" fill="#9B28CC"/>
<path fill-rule="evenodd" clip-rule="evenodd" d="M93.8595 35.9565V28.442C93.8595 27.9543 93.9578 27.4425 94.1619 26.9066C94.3898 26.3481 94.7444 25.8845 95.2792 25.4781C95.832 25.0957 96.4145 24.8895 97.0715 24.8895C97.9103 24.8895 98.5151 25.1198 98.9174 25.5548C99.3241 26.0139 99.5282 26.7305 99.5282 27.7014V35.9565H101.977V26.9834C101.977 26.3195 101.855 25.6843 101.629 25.0189C101.373 24.3551 100.942 23.8147 100.313 23.4082C99.6563 22.9732 98.8414 22.767 97.8343 22.767C96.8972 22.767 96.0882 22.9431 95.4014 23.3315C94.7206 23.7138 94.1917 24.2256 93.8073 24.8368L93.7612 23.0199H91.4043V35.9565H93.8595H93.8595Z" fill="#9B28CC"/>
<path fill-rule="evenodd" clip-rule="evenodd" d="M115.314 35.9565V34.0162H107.952C108.307 33.4517 108.866 32.6584 109.623 31.6634C110.385 30.6639 110.966 29.9232 111.369 29.4114C112.51 27.9829 113.749 26.4716 115.063 24.9437V23.0199H105.45V24.9662H112.102C110.612 26.7305 109.57 28.007 108.942 28.853C108.104 29.9473 107.348 30.9995 106.637 31.9705C105.956 32.9158 105.473 33.6052 105.193 34.0403V35.9565H115.314V35.9565Z" fill="#9B28CC"/>
<path fill-rule="evenodd" clip-rule="evenodd" d="M125.691 41.0186C126.402 40.8139 127.007 40.4542 127.489 39.9664C127.92 39.5374 128.27 38.9729 128.502 38.3317C128.729 37.6964 128.851 36.9031 128.851 35.9804V23.0196H126.5L126.448 24.12C126.274 23.9439 126.046 23.7377 125.715 23.5073C125.413 23.3026 125.034 23.1265 124.551 22.973C124.073 22.8435 123.544 22.7667 122.933 22.7667C122.199 22.7667 121.518 22.9203 120.885 23.2018C120.25 23.5073 119.698 23.9439 119.215 24.5084C118.761 25.0954 118.382 25.7834 118.102 26.6248C117.823 27.4708 117.695 28.4177 117.695 29.488C117.695 30.641 117.823 31.6345 118.08 32.4805C118.33 33.2979 118.685 33.9632 119.115 34.4976C119.569 35.0395 120.098 35.4219 120.733 35.6748C121.338 35.9036 122.025 36.0331 122.758 36.0331C123.59 36.0331 124.323 35.8795 124.906 35.5739C125.487 35.2683 125.994 34.8032 126.424 34.1394V36.1324C126.424 37.2614 126.122 38.0788 125.517 38.6147C124.934 39.1792 123.997 39.432 122.706 39.432C121.722 39.432 120.709 39.3026 119.622 39.0256L119.243 40.9133C119.622 40.99 120.128 41.0954 120.785 41.2189C121.444 41.3242 122.253 41.3784 123.212 41.3784C124.149 41.3784 124.958 41.249 125.691 41.0186H125.691ZM121.874 33.6577C121.49 33.3988 121.187 33.0691 120.959 32.6581C120.733 32.2517 120.583 31.764 120.483 31.1995C120.407 30.6636 120.355 30.0765 120.355 29.488C120.355 28.7473 120.431 28.1121 120.605 27.5235C120.757 26.959 120.989 26.4713 121.263 26.0664C121.542 25.684 121.897 25.3724 122.275 25.1722C122.683 24.966 123.136 24.8606 123.62 24.8606C123.969 24.8606 124.323 24.9133 124.68 25.0187C125.034 25.0954 125.337 25.249 125.593 25.401C125.843 25.5771 126.122 25.8075 126.402 26.0889V29.9757C126.402 30.5883 126.296 31.1995 126.122 31.8167C125.947 32.4519 125.615 32.9637 125.132 33.3988C124.656 33.8097 124.073 34.04 123.364 34.04C122.758 34.04 122.275 33.9106 121.874 33.6577V33.6577Z" fill="#9B28CC"/>
<path fill-rule="evenodd" clip-rule="evenodd" d="M135.408 35.9565V28.9538C135.408 28.5414 135.484 28.1364 135.635 27.7014C135.787 27.2664 136.013 26.884 136.322 26.5242C136.624 26.166 137.002 25.8604 137.457 25.6316C137.911 25.4013 138.446 25.2959 139.051 25.2959C139.459 25.2959 139.732 25.326 139.936 25.3727V23.0199C139.709 22.9732 139.383 22.9431 138.976 22.9431C138.568 22.9431 138.144 23.0199 137.683 23.1794C137.23 23.3315 136.828 23.6085 136.398 23.9968C135.991 24.4018 135.635 24.8895 135.356 25.4781L135.31 23.0199H132.953V35.9565H135.408H135.408Z" fill="#9B28CC"/>
<path fill-rule="evenodd" clip-rule="evenodd" d="M149.891 35.651C150.571 35.2687 151.1 34.7809 151.479 34.1397L151.508 35.9566H153.883V23.0199H151.433V30.5645C151.433 31.0462 151.357 31.5114 151.176 31.9464C151.026 32.3754 150.798 32.7638 150.495 33.0694C150.193 33.399 149.861 33.658 149.46 33.8341C149.076 34.0403 148.651 34.1156 148.191 34.1156C147.359 34.1156 146.753 33.9109 146.346 33.4758C145.968 33.0694 145.764 32.3754 145.764 31.406V23.0199H143.309V31.9464C143.309 33.3524 143.663 34.4212 144.396 35.1392C145.107 35.8572 146.12 36.2095 147.434 36.2095C148.371 36.2095 149.18 36.0093 149.891 35.651H149.891Z" fill="#9B28CC"/>
<path fill-rule="evenodd" clip-rule="evenodd" d="M159.908 41.1196V35.1631C160.287 35.4973 160.747 35.7276 161.276 35.9323C161.806 36.1099 162.411 36.2093 163.144 36.2093C164.035 36.2093 164.814 36.0558 165.525 35.7502C166.206 35.4446 166.787 34.9855 167.247 34.3984C167.701 33.8098 168.056 33.0933 168.306 32.2232C168.533 31.3818 168.661 30.4108 168.661 29.3119C168.661 28.2657 168.51 27.212 168.23 26.1899C167.952 25.1723 167.421 24.3248 166.636 23.7137C165.856 23.0724 164.866 22.7668 163.679 22.7668C163.144 22.7668 162.644 22.8436 162.137 22.9972C161.654 23.1492 161.2 23.4081 160.793 23.7378C160.391 24.096 160.089 24.4784 159.856 24.9134L159.81 23.0197H157.453V41.1196H159.908H159.908ZM161.148 33.8625C160.693 33.6578 160.287 33.3522 159.908 32.9924V29.6702C159.908 28.9763 159.984 28.3124 160.112 27.7238C160.263 27.1368 160.467 26.625 160.717 26.2185C160.974 25.7835 161.3 25.4493 161.706 25.219C162.085 24.9902 162.515 24.8607 163.022 24.8607C163.575 24.8607 164.081 25.0188 164.564 25.2958C165.047 25.5773 165.397 26.0665 165.653 26.777C165.903 27.4709 166.03 28.341 166.03 29.3646C166.03 29.8463 166.008 30.2814 165.932 30.7179C165.879 31.153 165.803 31.5579 165.675 31.9463C165.577 32.2759 165.425 32.6342 165.199 32.9638C164.995 33.3221 164.662 33.6051 164.209 33.8339C163.755 34.0928 163.248 34.1922 162.644 34.1922C162.085 34.1922 161.578 34.0928 161.148 33.8625V33.8625Z" fill="#9B28CC"/>
<path fill-rule="evenodd" clip-rule="evenodd" d="M174.365 41.1196V35.1631C174.744 35.4973 175.204 35.7276 175.733 35.9323C176.263 36.1099 176.868 36.2093 177.601 36.2093C178.492 36.2093 179.271 36.0558 179.982 35.7502C180.663 35.4446 181.244 34.9855 181.704 34.3984C182.159 33.8098 182.513 33.0933 182.763 32.2232C182.99 31.3818 183.118 30.4108 183.118 29.3119C183.118 28.2657 182.968 27.212 182.687 26.1899C182.409 25.1723 181.878 24.3248 181.093 23.7137C180.313 23.0724 179.323 22.7668 178.136 22.7668C177.601 22.7668 177.101 22.8436 176.594 22.9972C176.111 23.1492 175.657 23.4081 175.25 23.7378C174.848 24.096 174.546 24.4784 174.313 24.9134L174.267 23.0197H171.91V41.1196H174.365H174.365ZM175.605 33.8625C175.151 33.6578 174.744 33.3522 174.365 32.9924V29.6702C174.365 28.9763 174.441 28.3124 174.569 27.7238C174.72 27.1368 174.924 26.625 175.174 26.2185C175.431 25.7835 175.757 25.4493 176.164 25.219C176.542 24.9902 176.973 24.8607 177.479 24.8607C178.032 24.8607 178.538 25.0188 179.021 25.2958C179.504 25.5773 179.854 26.0665 180.11 26.777C180.36 27.4709 180.487 28.341 180.487 29.3646C180.487 29.8463 180.465 30.2814 180.389 30.7179C180.337 31.153 180.261 31.5579 180.132 31.9463C180.034 32.2759 179.882 32.6342 179.656 32.9638C179.452 33.3221 179.119 33.6051 178.666 33.8339C178.212 34.0928 177.706 34.1922 177.101 34.1922C176.542 34.1922 176.035 34.0928 175.605 33.8625V33.8625Z" fill="#9B28CC"/>
<path fill-rule="evenodd" clip-rule="evenodd" d="M194.501 36.1628C195.134 36.056 195.716 35.9566 196.247 35.7805L195.762 33.8868C195.362 33.9862 194.901 34.093 194.349 34.1698C193.82 34.2692 193.261 34.2932 192.702 34.2932C191.463 34.2932 190.554 33.9395 189.919 33.2456C189.286 32.5576 188.936 31.5581 188.832 30.259H197.002C197.032 29.824 197.056 29.3122 197.056 28.7477C197.056 26.8073 196.623 25.3261 195.762 24.2724C194.879 23.2262 193.616 22.7144 191.893 22.7144C190.985 22.7144 190.176 22.8679 189.466 23.2021C188.756 23.5318 188.175 23.9969 187.697 24.6081C187.214 25.1966 186.835 25.9132 186.609 26.7546C186.353 27.6006 186.225 28.5189 186.225 29.5184C186.225 30.5345 186.353 31.4813 186.631 32.2987C186.911 33.1462 187.312 33.8627 187.819 34.4513C188.355 35.0399 188.984 35.4689 189.745 35.8031C190.502 36.1102 191.363 36.2622 192.346 36.2622C193.161 36.2622 193.894 36.2396 194.5 36.1628H194.501ZM189.641 25.5775C190.147 24.8896 190.88 24.5313 191.841 24.5313C192.754 24.5313 193.411 24.8369 193.842 25.4014C194.244 25.9899 194.477 26.8073 194.477 27.8776V28.4647H188.78C188.862 27.2424 189.134 26.2714 189.641 25.5775V25.5775Z" fill="#9B28CC"/>
</svg>
