<svg width="130" height="43" viewBox="0 0 130 43" fill="none" xmlns="http://www.w3.org/2000/svg">
<g clip-path="url(#clip0_4070_12029)">
<mask id="mask0_4070_12029" style="mask-type:luminance" maskUnits="userSpaceOnUse" x="2" y="1" width="126" height="42">
<path d="M2.36328 42.3115H127.499V1.0794H2.36328V42.3115Z" fill="white"/>
</mask>
<g mask="url(#mask0_4070_12029)">
<path d="M125.235 36.4051H125.835V35.165H126.71V36.4051H127.423V37.0535H126.71V39.6564C126.71 39.9966 126.808 40.1183 127.107 40.1183C127.238 40.1183 127.343 40.1103 127.423 40.0944V40.7429C127.238 40.7907 126.994 40.8157 126.718 40.8157C126.127 40.8157 125.835 40.6531 125.835 39.7612V37.0535H125.235V36.4051ZM121.508 36.4051H122.335V36.9159H122.359C122.578 36.5268 122.992 36.2913 123.478 36.2913C124.143 36.2913 124.564 36.5916 124.564 37.4755V40.7668H123.689V37.7748C123.689 37.2072 123.519 36.9887 123.081 36.9887C122.725 36.9887 122.384 37.273 122.384 37.8397V40.7668H121.508V36.4051ZM119.695 38.1001V37.8646C119.695 37.3129 119.516 36.8919 119.022 36.8919C118.463 36.8919 118.293 37.4426 118.293 38.0103V38.1001H119.695ZM118.293 38.6997V38.9511C118.293 39.5347 118.365 40.28 119.022 40.28C119.647 40.28 119.72 39.5666 119.72 39.3072H120.546C120.546 40.272 119.962 40.8795 119.014 40.8795C118.3 40.8795 117.417 40.669 117.417 38.6508C117.417 37.5075 117.66 36.2913 119.03 36.2913C120.246 36.2913 120.571 37.0216 120.571 38.2378V38.6997H118.293ZM111.364 36.4051H112.191V36.9159H112.215C112.435 36.5268 112.848 36.2913 113.262 36.2913C113.886 36.2913 114.146 36.5916 114.275 36.9558C114.526 36.5348 114.851 36.2913 115.378 36.2913C115.994 36.2913 116.439 36.6076 116.439 37.4516V40.7668H115.564V37.7748C115.564 37.2072 115.394 36.9887 115.038 36.9887C114.68 36.9887 114.34 37.273 114.34 37.8397V40.7668H113.464V37.7748C113.464 37.2072 113.294 36.9887 112.93 36.9887C112.58 36.9887 112.24 37.273 112.24 37.8397V40.7668H111.364V36.4051ZM109.511 38.1001V37.8646C109.511 37.3129 109.332 36.8919 108.838 36.8919C108.278 36.8919 108.108 37.4426 108.108 38.0103V38.1001H109.511ZM108.108 38.6997V38.9511C108.108 39.5347 108.181 40.28 108.838 40.28C109.462 40.28 109.536 39.5666 109.536 39.3072H110.362C110.362 40.272 109.778 40.8795 108.829 40.8795C108.116 40.8795 107.232 40.669 107.232 38.6508C107.232 37.5075 107.475 36.2913 108.846 36.2913C110.062 36.2913 110.387 37.0216 110.387 38.2378V38.6997H108.108ZM104.73 40.0375C105.411 40.0375 105.484 39.1775 105.484 38.4892C105.484 37.7748 105.395 36.9887 104.787 36.9887C104.154 36.9887 104.049 37.6372 104.049 38.4483C104.049 39.1935 104.081 40.0375 104.73 40.0375ZM104.114 41.1389C104.114 41.4073 104.358 41.6587 104.747 41.6587C105.201 41.6587 105.484 41.3425 105.484 40.8396V40.1343H105.468C105.305 40.5154 104.9 40.7349 104.478 40.7349C103.457 40.7349 103.173 39.7292 103.173 38.537C103.173 37.5803 103.319 36.2913 104.559 36.2913C105.071 36.2913 105.435 36.6245 105.517 36.9408H105.533V36.4051H106.36V40.5563C106.36 41.6178 105.905 42.2583 104.73 42.2583C103.433 42.2583 103.287 41.4961 103.287 41.1389H104.114ZM101.303 38.4642C101.076 38.6428 100.59 38.7485 100.33 38.8703C100.079 38.991 99.974 39.2504 99.974 39.5756C99.974 39.9398 100.152 40.2311 100.517 40.2311C101.043 40.2311 101.303 39.835 101.303 39.1935V38.4642ZM102.13 39.8589C102.13 40.0206 102.228 40.1672 102.357 40.1672C102.414 40.1672 102.47 40.1582 102.503 40.1423V40.7099C102.397 40.7588 102.244 40.8157 102.073 40.8157C101.684 40.8157 101.36 40.6611 101.336 40.24H101.32C101.084 40.669 100.743 40.8795 100.232 40.8795C99.535 40.8795 99.098 40.4905 99.098 39.6564C99.098 38.6827 99.5191 38.4802 100.112 38.2856L100.792 38.1001C101.108 38.0103 101.303 37.9215 101.303 37.5404C101.303 37.1433 101.165 36.8919 100.703 36.8919C100.12 36.8919 100.039 37.3049 100.039 37.726H99.2118C99.2118 36.8021 99.5929 36.2913 100.743 36.2913C101.514 36.2913 102.13 36.5916 102.13 37.3618V39.8589ZM95.1523 36.4051H95.9794V36.9159H96.0033C96.2228 36.5268 96.6358 36.2913 97.1227 36.2913C97.7871 36.2913 98.2091 36.5916 98.2091 37.4755V40.7668H97.3332V37.7748C97.3332 37.2072 97.1636 36.9887 96.7256 36.9887C96.3685 36.9887 96.0283 37.273 96.0283 37.8397V40.7668H95.1523V36.4051ZM93.2169 38.4642C92.9904 38.6428 92.5035 38.7485 92.2442 38.8703C91.9937 38.991 91.888 39.2504 91.888 39.5756C91.888 39.9398 92.0666 40.2311 92.4317 40.2311C92.9575 40.2311 93.2169 39.835 93.2169 39.1935V38.4642ZM94.0439 39.8589C94.0439 40.0206 94.1417 40.1672 94.2714 40.1672C94.3283 40.1672 94.3851 40.1582 94.417 40.1423V40.7099C94.3123 40.7588 94.1577 40.8157 93.9881 40.8157C93.599 40.8157 93.2747 40.6611 93.2498 40.24H93.2338C92.9984 40.669 92.6582 40.8795 92.1474 40.8795C91.45 40.8795 91.012 40.4905 91.012 39.6564C91.012 38.6827 91.4341 38.4802 92.0257 38.2856L92.7071 38.1001C93.0223 38.0103 93.2169 37.9215 93.2169 37.5404C93.2169 37.1433 93.0802 36.8919 92.6173 36.8919C92.0336 36.8919 91.9528 37.3049 91.9528 37.726H91.1258C91.1258 36.8021 91.5069 36.2913 92.6582 36.2913C93.4284 36.2913 94.0439 36.5916 94.0439 37.3618V39.8589ZM85.1708 34.9784H86.6134L87.635 39.2673H87.6519L88.6566 34.9784H90.0673V40.7668H89.1923V35.9501H89.1764L88.0081 40.7668H87.2299L86.0627 35.9501H86.0457V40.7668H85.1708V34.9784ZM80.7472 37.0535H80.1396V36.4051H80.7472V36C80.7472 35.172 81.1442 34.9126 81.8586 34.9126C82.0441 34.9126 82.2067 34.9215 82.3364 34.9375V35.6099H82.093C81.7688 35.6099 81.6231 35.7316 81.6231 36.024V36.4051H82.3364V37.0535H81.6231V40.7668H80.7472V37.0535ZM77.9607 40.2311C78.6012 40.2311 78.7149 39.6963 78.7149 38.5859C78.7149 37.6212 78.6012 36.9408 77.9607 36.9408C77.3292 36.9408 77.2155 37.6212 77.2155 38.5859C77.2155 39.6963 77.3292 40.2311 77.9607 40.2311ZM77.9607 36.2913C79.2337 36.2913 79.5909 37.2321 79.5909 38.5859C79.5909 39.9398 79.1769 40.8795 77.9607 40.8795C76.7526 40.8795 76.3395 39.9398 76.3395 38.5859C76.3395 37.2321 76.6967 36.2913 77.9607 36.2913ZM72.3699 34.9784H73.2448V40.7668H72.3699V34.9784ZM69.8099 40.2311C70.4504 40.2311 70.5641 39.6963 70.5641 38.5859C70.5641 37.6212 70.4504 36.9408 69.8099 36.9408C69.1784 36.9408 69.0646 37.6212 69.0646 38.5859C69.0646 39.6963 69.1784 40.2311 69.8099 40.2311ZM69.8099 36.2913C71.0829 36.2913 71.4401 37.2321 71.4401 38.5859C71.4401 39.9398 71.026 40.8795 69.8099 40.8795C68.6017 40.8795 68.1887 39.9398 68.1887 38.5859C68.1887 37.2321 68.5459 36.2913 69.8099 36.2913ZM65.8402 40.2311C66.4807 40.2311 66.5944 39.6963 66.5944 38.5859C66.5944 37.6212 66.4807 36.9408 65.8402 36.9408C65.2077 36.9408 65.095 37.6212 65.095 38.5859C65.095 39.6963 65.2077 40.2311 65.8402 40.2311ZM65.8402 36.2913C67.1132 36.2913 67.4704 37.2321 67.4704 38.5859C67.4704 39.9398 67.0564 40.8795 65.8402 40.8795C64.6321 40.8795 64.219 39.9398 64.219 38.5859C64.219 37.2321 64.5762 36.2913 65.8402 36.2913ZM60.2733 34.9784H61.1492V36.875L61.1732 36.8919C61.4166 36.5188 61.7977 36.2913 62.2437 36.2913C62.9081 36.2913 63.3301 36.5916 63.3301 37.4755V40.7668H62.4542V37.7748C62.4542 37.2072 62.2846 36.9887 61.8466 36.9887C61.4894 36.9887 61.1492 37.273 61.1492 37.8397V40.7668H60.2733V34.9784ZM59.4492 39.1775C59.3924 40.2241 59.0352 40.8795 57.9567 40.8795C56.6927 40.8795 56.3356 39.9398 56.3356 38.5859C56.3356 37.2321 56.6927 36.2913 57.9567 36.2913C59.2627 36.2754 59.4572 37.3129 59.4572 37.8556H58.5813C58.5813 37.4516 58.4685 36.9238 57.9567 36.9408C57.3252 36.9408 57.2115 37.6212 57.2115 38.5859C57.2115 39.5507 57.3252 40.2311 57.9567 40.2311C58.4436 40.24 58.6222 39.835 58.6222 39.1775H59.4492ZM52.8527 38.975V39.1207C52.8527 39.827 53.161 40.1832 53.8005 40.1832C54.3851 40.1832 54.6765 39.7692 54.6765 39.3402C54.6765 38.7316 54.3682 38.4642 53.8494 38.3106L53.2169 38.0911C52.3739 37.7669 52.0097 37.3289 52.0097 36.5028C52.0097 35.4483 52.723 34.8647 53.8095 34.8647C55.293 34.8647 55.4466 35.7885 55.4466 36.3891V36.5188H54.5228V36.3971C54.5228 35.8693 54.2874 35.561 53.7117 35.561C53.3147 35.561 52.9335 35.7805 52.9335 36.3971C52.9335 36.8919 53.185 37.1433 53.8005 37.3778L54.425 37.6052C55.2441 37.8966 55.6013 38.3425 55.6013 39.1376C55.6013 40.3697 54.855 40.8795 53.6878 40.8795C52.2522 40.8795 51.9279 39.9228 51.9279 39.1127V38.975H52.8527ZM43.7461 36.4051H44.5722V36.9159H44.5971C44.8156 36.5268 45.2287 36.2913 45.6427 36.2913C46.2672 36.2913 46.5266 36.5916 46.6563 36.9558C46.9067 36.5348 47.231 36.2913 47.7587 36.2913C48.3743 36.2913 48.8202 36.6076 48.8202 37.4516V40.7668H47.9453V37.7748C47.9453 37.2072 47.7747 36.9887 47.4185 36.9887C47.0613 36.9887 46.7212 37.273 46.7212 37.8397V40.7668H45.8452V37.7748C45.8452 37.2072 45.6746 36.9887 45.3105 36.9887C44.9613 36.9887 44.6211 37.273 44.6211 37.8397V40.7668H43.7461V36.4051ZM41.7279 36.4051H42.6038V40.7668H41.7279V36.4051ZM41.7279 34.9126H42.6038V35.7885H41.7279V34.9126ZM39.8742 38.1001V37.8646C39.8742 37.3129 39.6957 36.8919 39.2018 36.8919C38.6421 36.8919 38.4715 37.4426 38.4715 38.0103V38.1001H39.8742ZM38.4715 38.6997V38.9511C38.4715 39.5347 38.5444 40.28 39.2018 40.28C39.8254 40.28 39.8992 39.5666 39.8992 39.3072H40.7252C40.7252 40.272 40.1416 40.8795 39.1928 40.8795C38.4795 40.8795 37.5956 40.669 37.5956 38.6508C37.5956 37.5075 37.839 36.2913 39.2098 36.2913C40.4259 36.2913 40.7502 37.0216 40.7502 38.2378V38.6997H38.4715ZM33.602 34.9784H34.4779V36.875L34.5019 36.8919C34.7453 36.5188 35.1264 36.2913 35.5724 36.2913C36.2368 36.2913 36.6588 36.5916 36.6588 37.4755V40.7668H35.7829V37.7748C35.7829 37.2072 35.6133 36.9887 35.1753 36.9887C34.8181 36.9887 34.4779 37.273 34.4779 37.8397V40.7668H33.602V34.9784ZM31.8132 37.6771V37.5643C31.8132 37.2152 31.6905 36.8919 31.2365 36.8919C30.8884 36.8919 30.613 37.0535 30.613 37.4596C30.613 37.7998 30.7667 37.9365 31.2286 38.1001L31.7882 38.2936C32.4367 38.5131 32.737 38.8613 32.737 39.5507C32.737 40.4835 32.0556 40.8795 31.1717 40.8795C30.0693 40.8795 29.7371 40.3697 29.7371 39.5267V39.3641H30.5152V39.5018C30.5152 40.0046 30.6938 40.28 31.1966 40.28C31.6745 40.28 31.91 40.0375 31.91 39.6395C31.91 39.3162 31.7394 39.1047 31.4311 38.999L30.7178 38.7485C30.0613 38.5211 29.786 38.1889 29.786 37.4915C29.786 36.6724 30.3776 36.2913 31.2774 36.2913C32.3878 36.2913 32.6392 36.9408 32.6392 37.4835V37.6771H31.8132ZM27.9553 36.4051H28.8312V40.7668H27.9553V36.4051ZM27.9553 34.9126H28.8312V35.7885H27.9553V34.9126ZM26.1016 38.1001V37.8646C26.1016 37.3129 25.923 36.8919 25.4282 36.8919C24.8685 36.8919 24.6989 37.4426 24.6989 38.0103V38.1001H26.1016ZM24.6989 38.6997V38.9511C24.6989 39.5347 24.7717 40.28 25.4282 40.28C26.0527 40.28 26.1256 39.5666 26.1256 39.3072H26.9516C26.9516 40.272 26.368 40.8795 25.4202 40.8795C24.7069 40.8795 23.823 40.669 23.823 38.6508C23.823 37.5075 24.0664 36.2913 25.4362 36.2913C26.6523 36.2913 26.9766 37.0216 26.9766 38.2378V38.6997H24.6989ZM21.272 40.0694C21.8227 40.0694 22.123 39.7123 22.123 39.0478C22.123 38.4233 21.7508 38.0672 21.2151 38.0672H20.3561V40.0694H21.272ZM21.0854 37.4187C21.6451 37.4187 21.9364 37.0456 21.9364 36.5028C21.9364 35.8134 21.5234 35.6758 21.0046 35.6758H20.3561V37.4187H21.0854ZM19.4313 34.9784H21.3039C22.1639 34.9784 22.8612 35.3595 22.8612 36.3801C22.8612 37.0855 22.5849 37.5154 22.0092 37.694V37.711C22.6417 37.8237 23.0478 38.2048 23.0478 39.1865C23.0478 40.1503 22.3504 40.7668 21.264 40.7668H19.4313V34.9784ZM14.6924 40.2311C15.3339 40.2311 15.4467 39.6963 15.4467 38.5859C15.4467 37.6212 15.3339 36.9408 14.6924 36.9408C14.0609 36.9408 13.9472 37.6212 13.9472 38.5859C13.9472 39.6963 14.0609 40.2311 14.6924 40.2311ZM14.6924 36.2913C15.9654 36.2913 16.3226 37.2321 16.3226 38.5859C16.3226 39.9398 15.9086 40.8795 14.6924 40.8795C13.4853 40.8795 13.0712 39.9398 13.0712 38.5859C13.0712 37.2321 13.4284 36.2913 14.6924 36.2913ZM10.3816 36.4051H10.9811V35.165H11.8571V36.4051H12.5704V37.0535H11.8571V39.6564C11.8571 39.9966 11.9549 40.1183 12.2542 40.1183C12.3839 40.1183 12.4896 40.1103 12.5704 40.0944V40.7429C12.3839 40.7907 12.1404 40.8157 11.8651 40.8157C11.2735 40.8157 10.9811 40.6531 10.9811 39.7612V37.0535H10.3816V36.4051ZM7.91037 36.4051H8.50996V35.165H9.3859V36.4051H10.0992V37.0535H9.3859V39.6564C9.3859 39.9966 9.48267 40.1183 9.78297 40.1183C9.91266 40.1183 10.0184 40.1103 10.0992 40.0944V40.7429C9.91266 40.7907 9.66924 40.8157 9.39388 40.8157C8.80227 40.8157 8.50996 40.6531 8.50996 39.7612V37.0535H7.91037V36.4051ZM6.39693 37.8477C6.39693 35.9032 5.95895 35.561 5.40825 35.561C4.85654 35.561 4.41957 35.9032 4.41957 37.8477C4.41957 39.842 4.85654 40.1832 5.40825 40.1832C5.95895 40.1832 6.39693 39.842 6.39693 37.8477ZM3.49475 37.8726C3.49475 35.8055 4.07837 34.8647 5.40825 34.8647C6.73712 34.8647 7.32175 35.8055 7.32175 37.8726C7.32175 39.9398 6.73712 40.8795 5.40825 40.8795C4.07837 40.8795 3.49475 39.9398 3.49475 37.8726ZM68.9529 1.24969H73.7945V17.3618C73.7945 21.0801 74.027 25.38 80.3022 25.38C86.5765 25.38 86.8089 21.0801 86.8089 17.3618V1.24969H91.6505V18.9501C91.6505 26.0384 87.1182 29.5631 80.3022 29.5631C73.4852 29.5631 68.9529 26.0384 68.9529 18.9501V1.24969ZM41.7618 1.24969H46.6034V12.2498H59.1908V1.24969H64.0325V28.9047H59.1908V16.433H46.6034V28.9047H41.7618V1.24969ZM2.49609 1.24969H7.41553L12.4118 22.398H12.4886L18.0665 1.24969H23.0239L28.4461 22.398H28.5239L33.6758 1.24969H38.5942L30.9642 28.9047H26.0457L20.5068 7.75739H20.4289L14.7742 28.9047H9.77798L2.49609 1.24969Z" fill="#9B28CC"/>
<path d="M126.72 28.4039H100.176V1.85928H126.72V28.4039ZM99.3926 29.187H127.504V1.07511H99.3926V29.187Z" fill="#9B28CC"/>
<path d="M110.05 10.2668H113.357L111.209 12.4147H107.902L110.05 10.2668ZM114.456 14.6245H117.79L115.646 16.7685H112.312L114.456 14.6245ZM114.287 14.2325V9.87471H109.887L106.955 12.8068H111.355V17.1606H115.789V21.5513L118.721 18.6192V14.2325H114.287Z" fill="#9B28CC"/>
<path d="M115.536 4.77949H118.843L116.695 6.92744H113.388L115.536 4.77949ZM119.943 9.13725H123.276L121.132 11.2812H117.799L119.943 9.13725ZM119.773 8.74517V4.38741H115.374L112.441 7.31952H116.841V11.6733H121.276V16.064L124.208 13.1319V8.74517H119.773Z" fill="#9B28CC"/>
<path d="M104.573 15.7434H107.88L105.733 17.8913H102.425L104.573 15.7434ZM108.98 20.1011H112.313L110.169 22.2451H106.836L108.98 20.1011ZM108.81 19.709V15.3513H104.411L101.479 18.2834H105.877V22.6372H110.313V27.0278L113.245 24.0957V19.709H108.81Z" fill="#9B28CC"/>
</g>
</g>
<defs>
<clipPath id="clip0_4070_12029">
<rect width="130" height="42.7556" fill="white"/>
</clipPath>
</defs>
</svg>
